<svg width="20" height="20" viewBox="0 0 20 20" fill="none" xmlns="http://www.w3.org/2000/svg">
<path d="M9.99996 18.3334C8.86107 18.3334 7.78468 18.1145 6.77079 17.6767C5.7569 17.239 4.87163 16.6417 4.11496 15.8851C3.35829 15.1284 2.76107 14.2431 2.32329 13.2292C1.88551 12.2154 1.66663 11.139 1.66663 10.0001C1.66663 8.8473 1.88551 7.76758 2.32329 6.76091C2.76107 5.75425 3.35829 4.8723 4.11496 4.11508C4.87163 3.35786 5.7569 2.76064 6.77079 2.32341C7.78468 1.88619 8.86107 1.6673 9.99996 1.66675C11.1527 1.66675 12.2327 1.88564 13.24 2.32341C14.2472 2.76119 15.1288 3.35841 15.885 4.11508C16.6411 4.87175 17.2383 5.75369 17.6766 6.76091C18.115 7.76814 18.3338 8.84786 18.3333 10.0001C18.3333 11.139 18.1144 12.2154 17.6766 13.2292C17.2388 14.2431 16.6416 15.1287 15.885 15.8859C15.1283 16.6431 14.2463 17.2404 13.2391 17.6776C12.2319 18.1148 11.1522 18.3334 9.99996 18.3334ZM9.99996 16.6251C10.3611 16.1251 10.6736 15.6042 10.9375 15.0626C11.2013 14.5209 11.4166 13.9445 11.5833 13.3334H8.41663C8.58329 13.9445 8.79857 14.5209 9.06246 15.0626C9.32635 15.6042 9.63885 16.1251 9.99996 16.6251ZM7.83329 16.2917C7.58329 15.8334 7.36468 15.3576 7.17746 14.8642C6.99024 14.3709 6.83385 13.8606 6.70829 13.3334H4.24996C4.65274 14.0279 5.15635 14.632 5.76079 15.1459C6.36524 15.6598 7.05607 16.0417 7.83329 16.2917ZM12.1666 16.2917C12.9444 16.0417 13.6355 15.6598 14.24 15.1459C14.8444 14.632 15.3477 14.0279 15.75 13.3334H13.2916C13.1666 13.8612 13.0105 14.3717 12.8233 14.8651C12.6361 15.3584 12.4172 15.834 12.1666 16.2917ZM3.54163 11.6667H6.37496C6.33329 11.389 6.30218 11.1148 6.28163 10.8442C6.26107 10.5737 6.25051 10.2923 6.24996 10.0001C6.2494 9.70786 6.25996 9.42675 6.28163 9.15675C6.30329 8.88675 6.3344 8.6123 6.37496 8.33341H3.54163C3.47218 8.61119 3.42024 8.88564 3.38579 9.15675C3.35135 9.42786 3.33385 9.70897 3.33329 10.0001C3.33274 10.2912 3.35024 10.5726 3.38579 10.8442C3.42135 11.1159 3.47329 11.3901 3.54163 11.6667ZM8.04163 11.6667H11.9583C12 11.389 12.0313 11.1148 12.0525 10.8442C12.0736 10.5737 12.0838 10.2923 12.0833 10.0001C12.0827 9.70786 12.0722 9.42675 12.0516 9.15675C12.0311 8.88675 12 8.6123 11.9583 8.33341H8.04163C7.99996 8.61119 7.96885 8.88564 7.94829 9.15675C7.92774 9.42786 7.91718 9.70897 7.91663 10.0001C7.91607 10.2912 7.92663 10.5726 7.94829 10.8442C7.96996 11.1159 8.00107 11.3901 8.04163 11.6667ZM13.625 11.6667H16.4583C16.5277 11.389 16.58 11.1148 16.615 10.8442C16.65 10.5737 16.6672 10.2923 16.6666 10.0001C16.6661 9.70786 16.6488 9.42675 16.615 9.15675C16.5811 8.88675 16.5288 8.6123 16.4583 8.33341H13.625C13.6666 8.61119 13.698 8.88564 13.7191 9.15675C13.7402 9.42786 13.7505 9.70897 13.75 10.0001C13.7494 10.2912 13.7388 10.5726 13.7183 10.8442C13.6977 11.1159 13.6666 11.3901 13.625 11.6667ZM13.2916 6.66675H15.75C15.3472 5.9723 14.8438 5.36814 14.24 4.85425C13.6361 4.34036 12.945 3.95841 12.1666 3.70841C12.4166 4.16675 12.6355 4.64258 12.8233 5.13591C13.0111 5.62925 13.1672 6.13953 13.2916 6.66675ZM8.41663 6.66675H11.5833C11.4166 6.05564 11.2013 5.47925 10.9375 4.93758C10.6736 4.39591 10.3611 3.87508 9.99996 3.37508C9.63885 3.87508 9.32635 4.39591 9.06246 4.93758C8.79857 5.47925 8.58329 6.05564 8.41663 6.66675ZM4.24996 6.66675H6.70829C6.83329 6.13897 6.98968 5.62841 7.17746 5.13508C7.36524 4.64175 7.58385 4.16619 7.83329 3.70841C7.05551 3.95841 6.3644 4.34036 5.75996 4.85425C5.15551 5.36814 4.65218 5.9723 4.24996 6.66675Z" fill="#4A4545"/>
</svg>
